<?xml version="1.0" ?><svg height="24" id="svg8" version="1.1" viewBox="0 0 24 24" width="24" xmlns="http://www.w3.org/2000/svg" xmlns:cc="http://creativecommons.org/ns#" xmlns:dc="http://purl.org/dc/elements/1.1/" xmlns:rdf="http://www.w3.org/1999/02/22-rdf-syntax-ns#" xmlns:svg="http://www.w3.org/2000/svg"><defs id="defs2"><rect height="7.0346723" id="rect2504" width="7.9207187" x="-1.1008456" y="289.81766"/></defs><g id="g2969" style="display:inline;stroke-width:0.702087" transform="matrix(1.4243245,0,0,1.4243253,-5.0918936,-5.0919012)"><path d="m 90.511719,-37.419922 c -0.928969,0.775097 -2.17901,2.090564 -3.097657,3.990234 -0.856639,-0.365021 -1.590312,-0.80325 -2.208984,-1.263671 1.401516,-1.41805 3.242011,-2.403481 5.306641,-2.726563 z m 2.976562,0 c 2.06463,0.323082 3.905125,1.308513 5.306641,2.726563 -0.618672,0.460421 -1.352344,0.89865 -2.208984,1.263671 -0.918647,-1.89967 -2.168688,-3.215137 -3.097657,-3.990234 z M 91.5,-36.925781 v 4.378906 c -1.200272,-0.04612 -2.265227,-0.247397 -3.201172,-0.552734 1.010118,-2.110045 2.438502,-3.298861 3.201172,-3.826172 z m 1,0 c 0.76267,0.527311 2.191054,1.716127 3.201172,3.826172 -0.935945,0.305337 -2.000902,0.506617 -3.201172,0.552734 z m -7.957031,2.980469 c 0.685755,0.516998 1.505968,1.013057 2.464843,1.423828 -0.437859,1.148331 -0.736062,2.484519 -0.791015,4.021484 h -3.650391 -0.08984 c 0.106465,-2.058759 0.860002,-3.937901 2.066407,-5.445312 z m 14.914062,0 c 1.206409,1.507411 1.959939,3.386553 2.066409,5.445312 h -0.0898 -3.650387 c -0.05495,-1.536965 -0.353156,-2.873153 -0.791015,-4.021484 0.958875,-0.410771 1.779087,-0.90683 2.464843,-1.423828 z m -11.548828,1.765624 c 1.051587,0.352953 2.247027,0.58606 3.591797,0.634766 V -28.5 h -4.277344 c 0.05165,-1.415454 0.305432,-2.642324 0.685547,-3.679688 z m 8.183594,0 c 0.380115,1.037364 0.633895,2.264234 0.685547,3.679688 H 92.5 v -3.044922 c 1.344768,-0.04871 2.540209,-0.281813 3.591797,-0.634766 z M 82.476562,-27.5 h 0.08984 3.650391 c 0.05495,1.536966 0.353156,2.873153 0.791015,4.021484 -0.958875,0.410771 -1.779088,0.90683 -2.464843,1.423828 C 83.33656,-23.562099 82.583023,-25.441241 82.476558,-27.5 Z m 4.746094,0 H 91.5 v 3.044922 c -1.34477,0.04871 -2.54021,0.281813 -3.591797,0.634766 -0.380115,-1.037364 -0.633895,-2.264232 -0.685547,-3.679688 z m 5.277344,0 h 4.277344 c -0.05165,1.415456 -0.305432,2.642324 -0.685547,3.679688 -1.051588,-0.352953 -2.247028,-0.58606 -3.591797,-0.634766 z m 5.283203,0 h 3.650387 0.0898 c -0.10647,2.058759 -0.86,3.937901 -2.066409,5.445312 -0.685756,-0.516998 -1.505968,-1.013057 -2.464843,-1.423828 0.437859,-1.148331 0.736062,-2.484518 0.791015,-4.021484 z M 91.5,-23.453125 v 4.378906 c -0.76267,-0.52731 -2.191054,-1.716127 -3.201172,-3.826172 0.935945,-0.305337 2.0009,-0.506617 3.201172,-0.552734 z m 1,0 c 1.20027,0.04612 2.265227,0.247397 3.201172,0.552734 -1.010118,2.110045 -2.438502,3.298862 -3.201172,3.826172 z m -5.085938,0.882813 c 0.918647,1.89967 2.168688,3.215139 3.097657,3.990234 -2.06463,-0.323082 -3.905125,-1.308513 -5.306641,-2.726563 0.618672,-0.460421 1.352345,-0.89865 2.208984,-1.263671 z m 9.171876,0 c 0.85664,0.365021 1.590311,0.80325 2.208984,1.263671 -1.401517,1.41805 -3.242011,2.403481 -5.306641,2.726563 0.928969,-0.775095 2.17901,-2.090564 3.097657,-3.990234 z" id="ellipse2865" style="color:#000000;font-style:normal;font-variant:normal;font-weight:normal;font-stretch:normal;font-size:medium;line-height:normal;font-family:sans-serif;font-variant-ligatures:normal;font-variant-position:normal;font-variant-caps:normal;font-variant-numeric:normal;font-variant-alternates:normal;font-variant-east-asian:normal;font-feature-settings:normal;font-variation-settings:normal;text-indent:0;text-align:start;text-decoration:none;text-decoration-line:none;text-decoration-style:solid;text-decoration-color:#000000;letter-spacing:normal;word-spacing:normal;text-transform:none;writing-mode:lr-tb;direction:ltr;text-orientation:mixed;dominant-baseline:auto;baseline-shift:baseline;text-anchor:start;white-space:normal;shape-padding:0;shape-margin:0;inline-size:0;clip-rule:nonzero;display:inline;overflow:visible;visibility:visible;opacity:1;isolation:auto;mix-blend-mode:normal;color-interpolation:sRGB;color-interpolation-filters:linearRGB;solid-color:#000000;solid-opacity:1;vector-effect:none;fill:#000000;fill-opacity:1;fill-rule:nonzero;stroke:none;stroke-width:1;stroke-linecap:butt;stroke-linejoin:miter;stroke-miterlimit:4;stroke-dasharray:none;stroke-dashoffset:0;stroke-opacity:1;paint-order:fill markers stroke;color-rendering:auto;image-rendering:auto;shape-rendering:auto;text-rendering:auto;enable-background:accumulate;stop-color:#000000;stop-opacity:1" transform="matrix(0.7020872,0,0,0.70208681,-52.592022,31.658429)"/></g></svg>